<svg width="235" height="61" viewBox="0 0 235 61" fill="none" xmlns="http://www.w3.org/2000/svg">
<g filter="url(#filter0_ddd_13038_84858)">
<rect x="5.5" y="4" width="224" height="51" rx="8" fill="white"/>
<rect width="24" height="24" transform="translate(21.5 17.5)" fill="white"/>
<path fill-rule="evenodd" clip-rule="evenodd" d="M44.54 29.7613C44.54 28.9459 44.4668 28.1618 44.3309 27.4091H33.5V31.8575H39.6891C39.4225 33.295 38.6123 34.5129 37.3943 35.3284V38.2138H41.1109C43.2855 36.2118 44.54 33.2636 44.54 29.7613Z" fill="#4285F4"/>
<path fill-rule="evenodd" clip-rule="evenodd" d="M33.5 40.9998C36.605 40.9998 39.2081 39.97 41.1109 38.2137L37.3943 35.3282C36.3645 36.0182 35.0472 36.4259 33.5 36.4259C30.5047 36.4259 27.9695 34.403 27.0652 31.6848H23.2231V34.6644C25.1154 38.4228 29.0045 40.9998 33.5 40.9998Z" fill="#34A853"/>
<path fill-rule="evenodd" clip-rule="evenodd" d="M27.0652 31.6851C26.8352 30.9951 26.7045 30.2581 26.7045 29.5001C26.7045 28.7422 26.8352 28.0051 27.0652 27.3151V24.3356H23.2232C22.4443 25.8881 22 27.6444 22 29.5001C22 31.3558 22.4443 33.1122 23.2232 34.6647L27.0652 31.6851Z" fill="#FBBC05"/>
<path fill-rule="evenodd" clip-rule="evenodd" d="M33.5 22.5739C35.1884 22.5739 36.7043 23.1541 37.8961 24.2936L41.1945 20.9952C39.2029 19.1395 36.5997 18 33.5 18C29.0045 18 25.1154 20.577 23.2231 24.3355L27.0652 27.315C27.9695 24.5968 30.5047 22.5739 33.5 22.5739Z" fill="#EA4335"/>
<path d="M55.174 36V23.148H57.478V34.056H62.842V36H55.174ZM73.5665 31.104C73.5665 31.92 73.4585 32.64 73.2425 33.264C73.0265 33.888 72.7145 34.422 72.3065 34.866C71.9105 35.298 71.4185 35.628 70.8305 35.856C70.2545 36.072 69.6125 36.18 68.9045 36.18C68.2325 36.18 67.6145 36.072 67.0505 35.856C66.4865 35.628 65.9945 35.298 65.5745 34.866C65.1665 34.422 64.8485 33.888 64.6205 33.264C64.3925 32.64 64.2785 31.92 64.2785 31.104C64.2785 30.024 64.4645 29.112 64.8365 28.368C65.2085 27.612 65.7425 27.042 66.4385 26.658C67.1465 26.262 67.9805 26.064 68.9405 26.064C69.8525 26.064 70.6505 26.262 71.3345 26.658C72.0305 27.042 72.5765 27.612 72.9725 28.368C73.3685 29.112 73.5665 30.024 73.5665 31.104ZM66.6005 31.104C66.6005 31.788 66.6785 32.376 66.8345 32.868C67.0025 33.348 67.2545 33.714 67.5905 33.966C67.9385 34.218 68.3825 34.344 68.9225 34.344C69.4745 34.344 69.9185 34.218 70.2545 33.966C70.6025 33.714 70.8545 33.348 71.0105 32.868C71.1665 32.376 71.2445 31.788 71.2445 31.104C71.2445 30.408 71.1605 29.826 70.9925 29.358C70.8365 28.878 70.5845 28.518 70.2365 28.278C69.9005 28.026 69.4625 27.9 68.9225 27.9C68.1065 27.9 67.5125 28.176 67.1405 28.728C66.7805 29.28 66.6005 30.072 66.6005 31.104ZM79.1871 26.064C79.7991 26.064 80.3511 26.184 80.8431 26.424C81.3351 26.664 81.7491 27.024 82.0851 27.504H82.1751L82.3911 26.244H84.2811V36.072C84.2811 36.996 84.1071 37.77 83.7591 38.394C83.4111 39.03 82.8891 39.51 82.1931 39.834C81.4971 40.158 80.6271 40.32 79.5831 40.32C78.8871 40.32 78.2451 40.272 77.6571 40.176C77.0691 40.092 76.5111 39.942 75.9831 39.726V37.854C76.3551 38.01 76.7391 38.142 77.1351 38.25C77.5431 38.37 77.9631 38.46 78.3951 38.52C78.8271 38.58 79.2711 38.61 79.7271 38.61C80.4711 38.61 81.0351 38.4 81.4191 37.98C81.8151 37.56 82.0131 36.96 82.0131 36.18V35.928C82.0131 35.748 82.0191 35.538 82.0311 35.298C82.0551 35.058 82.0731 34.866 82.0851 34.722H82.0131C81.6771 35.226 81.2691 35.598 80.7891 35.838C80.3091 36.066 79.7571 36.18 79.1331 36.18C77.9451 36.18 77.0151 35.736 76.3431 34.848C75.6711 33.96 75.3351 32.724 75.3351 31.14C75.3351 30.072 75.4851 29.16 75.7851 28.404C76.0971 27.648 76.5411 27.072 77.1171 26.676C77.6931 26.268 78.3831 26.064 79.1871 26.064ZM79.7811 27.918C79.3251 27.918 78.9351 28.044 78.6111 28.296C78.2991 28.536 78.0591 28.896 77.8911 29.376C77.7351 29.856 77.6571 30.456 77.6571 31.176C77.6571 32.232 77.8371 33.03 78.1971 33.57C78.5571 34.11 79.0971 34.38 79.8171 34.38C80.2251 34.38 80.5731 34.332 80.8611 34.236C81.1491 34.128 81.3831 33.96 81.5631 33.732C81.7551 33.492 81.8991 33.192 81.9951 32.832C82.0911 32.46 82.1391 32.016 82.1391 31.5V31.158C82.1391 30.378 82.0551 29.754 81.8871 29.286C81.7191 28.806 81.4611 28.458 81.1131 28.242C80.7771 28.026 80.3331 27.918 79.7811 27.918ZM89.4467 26.244V36H87.1787V26.244H89.4467ZM88.3127 22.482C88.6487 22.482 88.9427 22.572 89.1947 22.752C89.4467 22.92 89.5727 23.226 89.5727 23.67C89.5727 24.102 89.4467 24.414 89.1947 24.606C88.9427 24.786 88.6487 24.876 88.3127 24.876C87.9647 24.876 87.6647 24.786 87.4127 24.606C87.1727 24.414 87.0527 24.102 87.0527 23.67C87.0527 23.226 87.1727 22.92 87.4127 22.752C87.6647 22.572 87.9647 22.482 88.3127 22.482ZM97.5667 26.064C98.6587 26.064 99.5107 26.346 100.123 26.91C100.747 27.474 101.059 28.386 101.059 29.646V36H98.7907V30.096C98.7907 29.364 98.6467 28.818 98.3587 28.458C98.0707 28.086 97.6147 27.9 96.9907 27.9C96.0787 27.9 95.4547 28.188 95.1187 28.764C94.7827 29.328 94.6147 30.15 94.6147 31.23V36H92.3467V26.244H94.0927L94.4167 27.522H94.5427C94.7587 27.186 95.0227 26.91 95.3347 26.694C95.6467 26.478 95.9947 26.322 96.3787 26.226C96.7627 26.118 97.1587 26.064 97.5667 26.064ZM115.483 31.806C115.423 31.578 115.351 31.296 115.267 30.96C115.183 30.612 115.093 30.252 114.997 29.88C114.913 29.508 114.829 29.166 114.745 28.854C114.673 28.542 114.625 28.302 114.601 28.134H114.529C114.493 28.302 114.439 28.542 114.367 28.854C114.295 29.166 114.217 29.508 114.133 29.88C114.049 30.252 113.959 30.612 113.863 30.96C113.779 31.308 113.707 31.596 113.647 31.824L112.513 36H110.029L107.293 26.226H109.579L110.785 30.888C110.869 31.2 110.947 31.554 111.019 31.95C111.103 32.346 111.175 32.73 111.235 33.102C111.295 33.462 111.337 33.756 111.361 33.984H111.433C111.457 33.828 111.487 33.624 111.523 33.372C111.559 33.108 111.601 32.838 111.649 32.562C111.709 32.274 111.763 32.01 111.811 31.77C111.871 31.53 111.919 31.344 111.955 31.212L113.359 26.226H115.843L117.193 31.212C117.253 31.428 117.319 31.71 117.391 32.058C117.463 32.406 117.529 32.754 117.589 33.102C117.649 33.45 117.685 33.738 117.697 33.966H117.769C117.793 33.762 117.835 33.486 117.895 33.138C117.955 32.778 118.027 32.394 118.111 31.986C118.195 31.578 118.285 31.212 118.381 30.888L119.605 26.226H121.855L119.083 36H116.563L115.483 31.806ZM125.781 26.244V36H123.513V26.244H125.781ZM124.647 22.482C124.983 22.482 125.277 22.572 125.529 22.752C125.781 22.92 125.907 23.226 125.907 23.67C125.907 24.102 125.781 24.414 125.529 24.606C125.277 24.786 124.983 24.876 124.647 24.876C124.299 24.876 123.999 24.786 123.747 24.606C123.507 24.414 123.387 24.102 123.387 23.67C123.387 23.226 123.507 22.92 123.747 22.752C123.999 22.572 124.299 22.482 124.647 22.482ZM132.461 34.362C132.749 34.362 133.025 34.338 133.289 34.29C133.553 34.23 133.799 34.164 134.027 34.092V35.784C133.787 35.892 133.475 35.982 133.091 36.054C132.707 36.138 132.305 36.18 131.885 36.18C131.333 36.18 130.829 36.09 130.373 35.91C129.929 35.718 129.569 35.394 129.293 34.938C129.029 34.482 128.897 33.846 128.897 33.03V27.954H127.583V26.964L129.023 26.172L129.743 24.102H131.165V26.244H133.937V27.954H131.165V33.012C131.165 33.468 131.285 33.81 131.525 34.038C131.765 34.254 132.077 34.362 132.461 34.362ZM138.261 25.578C138.261 25.962 138.243 26.34 138.207 26.712C138.183 27.072 138.159 27.342 138.135 27.522H138.279C138.483 27.186 138.735 26.916 139.035 26.712C139.335 26.496 139.665 26.334 140.025 26.226C140.397 26.118 140.781 26.064 141.177 26.064C141.909 26.064 142.539 26.19 143.067 26.442C143.595 26.694 143.997 27.084 144.273 27.612C144.561 28.128 144.705 28.806 144.705 29.646V36H142.437V30.096C142.437 29.352 142.293 28.8 142.005 28.44C141.717 28.08 141.261 27.9 140.637 27.9C140.037 27.9 139.563 28.032 139.215 28.296C138.867 28.548 138.621 28.926 138.477 29.43C138.333 29.922 138.261 30.528 138.261 31.248V36H135.993V22.32H138.261V25.578ZM157.564 28.944H162.424V35.478C161.74 35.706 161.038 35.88 160.318 36C159.598 36.12 158.782 36.18 157.87 36.18C156.574 36.18 155.476 35.922 154.576 35.406C153.676 34.89 152.992 34.14 152.524 33.156C152.056 32.172 151.822 30.972 151.822 29.556C151.822 28.212 152.086 27.048 152.614 26.064C153.142 25.08 153.898 24.318 154.882 23.778C155.878 23.238 157.09 22.968 158.518 22.968C159.214 22.968 159.886 23.04 160.534 23.184C161.194 23.316 161.794 23.502 162.334 23.742L161.542 25.632C161.134 25.428 160.66 25.26 160.12 25.128C159.592 24.984 159.04 24.912 158.464 24.912C157.588 24.912 156.832 25.104 156.196 25.488C155.56 25.872 155.068 26.418 154.72 27.126C154.384 27.822 154.216 28.644 154.216 29.592C154.216 30.504 154.348 31.314 154.612 32.022C154.876 32.718 155.296 33.264 155.872 33.66C156.448 34.044 157.198 34.236 158.122 34.236C158.434 34.236 158.704 34.224 158.932 34.2C159.172 34.176 159.388 34.146 159.58 34.11C159.784 34.074 159.976 34.038 160.156 34.002V30.906H157.564V28.944ZM173.99 31.104C173.99 31.92 173.882 32.64 173.666 33.264C173.45 33.888 173.138 34.422 172.73 34.866C172.334 35.298 171.842 35.628 171.254 35.856C170.678 36.072 170.036 36.18 169.328 36.18C168.656 36.18 168.038 36.072 167.474 35.856C166.91 35.628 166.418 35.298 165.998 34.866C165.59 34.422 165.272 33.888 165.044 33.264C164.816 32.64 164.702 31.92 164.702 31.104C164.702 30.024 164.888 29.112 165.26 28.368C165.632 27.612 166.166 27.042 166.862 26.658C167.57 26.262 168.404 26.064 169.364 26.064C170.276 26.064 171.074 26.262 171.758 26.658C172.454 27.042 173 27.612 173.396 28.368C173.792 29.112 173.99 30.024 173.99 31.104ZM167.024 31.104C167.024 31.788 167.102 32.376 167.258 32.868C167.426 33.348 167.678 33.714 168.014 33.966C168.362 34.218 168.806 34.344 169.346 34.344C169.898 34.344 170.342 34.218 170.678 33.966C171.026 33.714 171.278 33.348 171.434 32.868C171.59 32.376 171.668 31.788 171.668 31.104C171.668 30.408 171.584 29.826 171.416 29.358C171.26 28.878 171.008 28.518 170.66 28.278C170.324 28.026 169.886 27.9 169.346 27.9C168.53 27.9 167.936 28.176 167.564 28.728C167.204 29.28 167.024 30.072 167.024 31.104ZM185.047 31.104C185.047 31.92 184.939 32.64 184.723 33.264C184.507 33.888 184.195 34.422 183.787 34.866C183.391 35.298 182.899 35.628 182.311 35.856C181.735 36.072 181.093 36.18 180.385 36.18C179.713 36.18 179.095 36.072 178.531 35.856C177.967 35.628 177.475 35.298 177.055 34.866C176.647 34.422 176.329 33.888 176.101 33.264C175.873 32.64 175.759 31.92 175.759 31.104C175.759 30.024 175.945 29.112 176.317 28.368C176.689 27.612 177.223 27.042 177.919 26.658C178.627 26.262 179.461 26.064 180.421 26.064C181.333 26.064 182.131 26.262 182.815 26.658C183.511 27.042 184.057 27.612 184.453 28.368C184.849 29.112 185.047 30.024 185.047 31.104ZM178.081 31.104C178.081 31.788 178.159 32.376 178.315 32.868C178.483 33.348 178.735 33.714 179.071 33.966C179.419 34.218 179.863 34.344 180.403 34.344C180.955 34.344 181.399 34.218 181.735 33.966C182.083 33.714 182.335 33.348 182.491 32.868C182.647 32.376 182.725 31.788 182.725 31.104C182.725 30.408 182.641 29.826 182.473 29.358C182.317 28.878 182.065 28.518 181.717 28.278C181.381 28.026 180.943 27.9 180.403 27.9C179.587 27.9 178.993 28.176 178.621 28.728C178.261 29.28 178.081 30.072 178.081 31.104ZM190.668 26.064C191.28 26.064 191.832 26.184 192.324 26.424C192.816 26.664 193.23 27.024 193.566 27.504H193.656L193.872 26.244H195.762V36.072C195.762 36.996 195.588 37.77 195.24 38.394C194.892 39.03 194.37 39.51 193.674 39.834C192.978 40.158 192.108 40.32 191.064 40.32C190.368 40.32 189.726 40.272 189.138 40.176C188.55 40.092 187.992 39.942 187.464 39.726V37.854C187.836 38.01 188.22 38.142 188.616 38.25C189.024 38.37 189.444 38.46 189.876 38.52C190.308 38.58 190.752 38.61 191.208 38.61C191.952 38.61 192.516 38.4 192.9 37.98C193.296 37.56 193.494 36.96 193.494 36.18V35.928C193.494 35.748 193.5 35.538 193.512 35.298C193.536 35.058 193.554 34.866 193.566 34.722H193.494C193.158 35.226 192.75 35.598 192.27 35.838C191.79 36.066 191.238 36.18 190.614 36.18C189.426 36.18 188.496 35.736 187.824 34.848C187.152 33.96 186.816 32.724 186.816 31.14C186.816 30.072 186.966 29.16 187.266 28.404C187.578 27.648 188.022 27.072 188.598 26.676C189.174 26.268 189.864 26.064 190.668 26.064ZM191.262 27.918C190.806 27.918 190.416 28.044 190.092 28.296C189.78 28.536 189.54 28.896 189.372 29.376C189.216 29.856 189.138 30.456 189.138 31.176C189.138 32.232 189.318 33.03 189.678 33.57C190.038 34.11 190.578 34.38 191.298 34.38C191.706 34.38 192.054 34.332 192.342 34.236C192.63 34.128 192.864 33.96 193.044 33.732C193.236 33.492 193.38 33.192 193.476 32.832C193.572 32.46 193.62 32.016 193.62 31.5V31.158C193.62 30.378 193.536 29.754 193.368 29.286C193.2 28.806 192.942 28.458 192.594 28.242C192.258 28.026 191.814 27.918 191.262 27.918ZM200.927 36H198.659V22.32H200.927V36ZM207.751 26.064C208.627 26.064 209.377 26.244 210.001 26.604C210.637 26.952 211.129 27.456 211.477 28.116C211.825 28.764 211.999 29.556 211.999 30.492V31.644H205.555C205.579 32.532 205.825 33.222 206.293 33.714C206.761 34.194 207.409 34.434 208.237 34.434C208.873 34.434 209.437 34.374 209.929 34.254C210.433 34.122 210.949 33.936 211.477 33.696V35.514C210.997 35.742 210.499 35.91 209.983 36.018C209.467 36.126 208.849 36.18 208.129 36.18C207.181 36.18 206.335 36 205.591 35.64C204.859 35.268 204.283 34.71 203.863 33.966C203.455 33.222 203.251 32.298 203.251 31.194C203.251 30.078 203.437 29.142 203.809 28.386C204.193 27.618 204.721 27.042 205.393 26.658C206.065 26.262 206.851 26.064 207.751 26.064ZM207.751 27.738C207.151 27.738 206.659 27.936 206.275 28.332C205.903 28.716 205.681 29.292 205.609 30.06H209.803C209.803 29.604 209.725 29.202 209.569 28.854C209.425 28.506 209.203 28.236 208.903 28.044C208.603 27.84 208.219 27.738 207.751 27.738Z" fill="#2E2E2E"/>
<rect x="6" y="4.5" width="223" height="50" rx="7.5" stroke="#E0E0E0"/>
</g>
<defs>
<filter id="filter0_ddd_13038_84858" x="0.5" y="0" width="234" height="61" filterUnits="userSpaceOnUse" color-interpolation-filters="sRGB">
<feFlood flood-opacity="0" result="BackgroundImageFix"/>
<feColorMatrix in="SourceAlpha" type="matrix" values="0 0 0 0 0 0 0 0 0 0 0 0 0 0 0 0 0 0 127 0" result="hardAlpha"/>
<feOffset dy="1"/>
<feGaussianBlur stdDeviation="2.5"/>
<feColorMatrix type="matrix" values="0 0 0 0 0 0 0 0 0 0 0 0 0 0 0 0 0 0 0.08 0"/>
<feBlend mode="normal" in2="BackgroundImageFix" result="effect1_dropShadow_13038_84858"/>
<feColorMatrix in="SourceAlpha" type="matrix" values="0 0 0 0 0 0 0 0 0 0 0 0 0 0 0 0 0 0 127 0" result="hardAlpha"/>
<feOffset dy="2"/>
<feGaussianBlur stdDeviation="0.5"/>
<feColorMatrix type="matrix" values="0 0 0 0 0 0 0 0 0 0 0 0 0 0 0 0 0 0 0.04 0"/>
<feBlend mode="normal" in2="effect1_dropShadow_13038_84858" result="effect2_dropShadow_13038_84858"/>
<feColorMatrix in="SourceAlpha" type="matrix" values="0 0 0 0 0 0 0 0 0 0 0 0 0 0 0 0 0 0 127 0" result="hardAlpha"/>
<feOffset dy="1"/>
<feGaussianBlur stdDeviation="1"/>
<feColorMatrix type="matrix" values="0 0 0 0 0 0 0 0 0 0 0 0 0 0 0 0 0 0 0.06 0"/>
<feBlend mode="normal" in2="effect2_dropShadow_13038_84858" result="effect3_dropShadow_13038_84858"/>
<feBlend mode="normal" in="SourceGraphic" in2="effect3_dropShadow_13038_84858" result="shape"/>
</filter>
</defs>
</svg>
